<?xml version="1.0" encoding="UTF-8"?>
<svg id="Layer_2" data-name="Layer 2" xmlns="http://www.w3.org/2000/svg" viewBox="0 0 469.49 123">
  <defs>
    <style>
      .cls-1 {
        fill: #0167ff;
      }
    </style>
  </defs>
  <g id="Layer_1-2" data-name="Layer 1">
    <g>
      <g>
        <path d="M168.66,87.15c-3.56,0-6.88-.65-9.96-1.95-3.08-1.3-5.76-3.09-8.04-5.37-2.28-2.28-4.07-4.93-5.37-7.94-1.3-3.01-1.95-6.27-1.95-9.79s.66-6.83,1.98-9.82c1.32-2.99,3.17-5.61,5.54-7.87,2.37-2.26,5.12-4.03,8.25-5.3,3.12-1.28,6.49-1.92,10.09-1.92,4.15,0,7.94.76,11.36,2.29,3.42,1.53,6.25,3.62,8.49,6.26l-7.39,7.39c-1.51-2.01-3.32-3.52-5.44-4.55-2.12-1.03-4.48-1.54-7.08-1.54-2.83,0-5.36.63-7.6,1.88-2.24,1.26-3.98,3.01-5.23,5.27-1.26,2.26-1.88,4.89-1.88,7.9s.62,5.59,1.85,7.87c1.23,2.28,2.92,4.07,5.06,5.37,2.14,1.3,4.61,1.95,7.39,1.95s5.17-.54,7.15-1.61c1.98-1.07,3.51-2.63,4.58-4.69,1.07-2.05,1.61-4.52,1.61-7.39l7.19,4.79-21.56-.34v-9.1h25.39v1.57c0,5.75-1.04,10.61-3.11,14.58-2.08,3.97-4.95,6.97-8.62,9-3.67,2.03-7.9,3.05-12.69,3.05Z"/>
        <path d="M196.29,53.07v33.26h10.54v-33.26h-10.54ZM219.59,53.11c-1.21-.48-2.61-.72-4.21-.72-3.6,0-6.44,1.07-8.52,3.22l-.03.03c-2.05,2.14-3.51,5.17-4.38,9.07l4.38,3.42c0-2.14.51-3.75,1.54-4.82,1.03-1.07,2.43-1.61,4.21-1.61.87,0,1.64.14,2.33.41.66.26,1.21.62,1.61,1.06.41-1.6,1-3.1,1.77-4.54.89-1.67,1.95-3.17,3.17-4.49-.57-.42-1.2-.76-1.86-1.03Z"/>
        <path d="M236.16,87.01c-3.01,0-5.73-.76-8.14-2.29-2.42-1.53-4.32-3.58-5.71-6.16-1.39-2.58-2.09-5.53-2.09-8.86s.7-6.31,2.09-8.93c1.39-2.62,3.28-4.68,5.68-6.16,2.39-1.48,5.12-2.22,8.18-2.22,2.23,0,4.25.43,6.06,1.3,1.8.87,3.27,2.06,4.41,3.59,1.14,1.53,1.78,3.27,1.92,5.24v14.37c-.14,1.96-.76,3.71-1.88,5.23-1.12,1.53-2.58,2.73-4.38,3.59-1.8.87-3.84,1.3-6.12,1.3ZM238.35,77.5c2.23,0,4.03-.73,5.37-2.19,1.34-1.46,2.02-3.35,2.02-5.68,0-1.51-.3-2.84-.89-4-.59-1.16-1.46-2.08-2.6-2.74-1.14-.66-2.44-.99-3.9-.99s-2.68.33-3.8.99c-1.12.66-2.01,1.59-2.67,2.77-.66,1.19-.99,2.53-.99,4.04s.33,2.85.99,4.04c.66,1.19,1.55,2.11,2.67,2.77,1.12.66,2.38.99,3.8.99ZM245.33,86.33v-8.96l1.57-8.14-1.57-8.01v-8.14h10.33v33.26h-10.33Z"/>
        <path d="M260.71,100.36v-47.29h10.54v8.49l-1.71,8.14,1.57,8.08v22.58h-10.4ZM280,87.01c-2.28,0-4.36-.43-6.23-1.3-1.87-.87-3.39-2.06-4.55-3.59-1.16-1.53-1.84-3.27-2.02-5.23v-14.03c.18-2.01.87-3.8,2.05-5.37s2.71-2.82,4.59-3.73c1.87-.91,3.92-1.37,6.16-1.37,3.1,0,5.87.75,8.31,2.26,2.44,1.51,4.37,3.56,5.78,6.16,1.41,2.6,2.12,5.57,2.12,8.9s-.7,6.29-2.09,8.86c-1.39,2.58-3.32,4.63-5.78,6.16-2.46,1.53-5.25,2.29-8.35,2.29ZM278.02,77.5c1.46,0,2.75-.33,3.87-.99,1.12-.66,2.01-1.58,2.67-2.77.66-1.19.99-2.53.99-4.04s-.33-2.85-.99-4.04c-.66-1.19-1.54-2.11-2.63-2.77-1.09-.66-2.37-.99-3.83-.99s-2.75.33-3.87.99c-1.12.66-2,1.59-2.64,2.77-.64,1.19-.96,2.53-.96,4.04s.32,2.85.96,4.04c.64,1.19,1.52,2.11,2.64,2.77,1.12.66,2.38.99,3.8.99Z"/>
        <path d="M300.28,86.33v-49.68h10.54v49.68h-10.54ZM322.32,86.33v-18.96c0-1.69-.55-3.07-1.64-4.14-1.09-1.07-2.46-1.61-4.11-1.61-1.09,0-2.08.24-2.94.72-.87.48-1.55,1.15-2.05,2.02-.5.87-.75,1.87-.75,3.01l-4.04-1.98c0-2.6.56-4.88,1.68-6.84,1.12-1.96,2.66-3.48,4.62-4.55,1.96-1.07,4.2-1.61,6.71-1.61s4.88.54,6.84,1.61c1.96,1.07,3.49,2.56,4.58,4.45,1.09,1.89,1.64,4.1,1.64,6.6v21.28h-10.54Z"/>
        <path d="M342.48,48.55c-1.6,0-2.94-.57-4.04-1.71-1.09-1.14-1.64-2.51-1.64-4.11s.55-3.01,1.64-4.11,2.44-1.64,4.04-1.64c1.69,0,3.05.55,4.07,1.64,1.03,1.09,1.54,2.46,1.54,4.11s-.51,2.97-1.54,4.11c-1.03,1.14-2.38,1.71-4.07,1.71ZM337.21,86.33v-33.26h10.54v33.26h-10.54Z"/>
        <path d="M370.01,87.08c-3.47,0-6.59-.75-9.37-2.26-2.78-1.51-4.96-3.58-6.54-6.23-1.57-2.65-2.36-5.61-2.36-8.9s.8-6.31,2.39-8.93c1.6-2.62,3.79-4.69,6.57-6.19,2.78-1.51,5.91-2.26,9.38-2.26,2.65,0,5.05.44,7.22,1.33,2.17.89,4.09,2.2,5.78,3.93l-6.77,6.84c-.78-.87-1.68-1.51-2.7-1.92-1.03-.41-2.2-.62-3.52-.62-1.46,0-2.77.33-3.94.99-1.16.66-2.08,1.57-2.74,2.74-.66,1.16-.99,2.5-.99,4s.33,2.92.99,4.11c.66,1.19,1.58,2.11,2.77,2.77,1.19.66,2.49.99,3.9.99s2.59-.23,3.66-.68c1.07-.46,1.99-1.12,2.77-1.98l6.78,6.71c-1.78,1.83-3.75,3.21-5.92,4.14-2.17.93-4.62,1.4-7.36,1.4Z"/>
        <path d="M386.67,86.33v-49.68h10.54v49.68h-10.54ZM408.02,86.33l-11.57-17.25,11.5-16.01h11.7l-13.96,18.07.41-4.45,14.3,19.64h-12.39Z"/>
        <path d="M435.25,87.08c-3.47,0-6.57-.78-9.31-2.33-2.74-1.55-4.91-3.65-6.5-6.3-1.6-2.65-2.39-5.61-2.39-8.9s.79-6.16,2.36-8.76c1.57-2.6,3.73-4.66,6.47-6.19,2.74-1.53,5.86-2.29,9.38-2.29s6.51.75,9.27,2.26c2.76,1.51,4.94,3.57,6.53,6.19,1.6,2.62,2.4,5.56,2.4,8.79s-.8,6.31-2.4,8.93c-1.6,2.62-3.76,4.71-6.5,6.26-2.74,1.55-5.84,2.33-9.31,2.33ZM435.25,77.5c1.46,0,2.76-.32,3.9-.96,1.14-.64,2.02-1.56,2.63-2.77.62-1.21.92-2.59.92-4.14s-.32-2.84-.96-4c-.64-1.16-1.52-2.08-2.64-2.74-1.12-.66-2.41-.99-3.87-.99s-2.76.33-3.9.99c-1.14.66-2.03,1.59-2.67,2.77-.64,1.19-.96,2.51-.96,3.97,0,1.55.32,2.93.96,4.14.64,1.21,1.53,2.13,2.67,2.77,1.14.64,2.44.96,3.9.96Z"/>
        <path class="cls-1" d="M463.27,87.08c-1.83,0-3.32-.62-4.48-1.85-1.16-1.23-1.75-2.74-1.75-4.52s.58-3.27,1.75-4.48c1.16-1.21,2.66-1.81,4.48-1.81s3.32.61,4.48,1.81c1.16,1.21,1.75,2.7,1.75,4.48s-.58,3.28-1.75,4.52c-1.16,1.23-2.66,1.85-4.48,1.85Z"/>
        <path d="M245.33,53.07v2.77c-.9-.86-1.93-1.59-3.11-2.16-1.8-.87-3.82-1.3-6.06-1.3-3.06,0-5.78.74-8.18,2.22-2.4,1.48-4.29,3.54-5.68,6.16-1.39,2.62-2.09,5.6-2.09,8.93s.7,6.29,2.09,8.86c1.39,2.58,3.3,4.63,5.71,6.16,2.42,1.53,5.13,2.29,8.14,2.29,2.28,0,4.32-.43,6.12-1.3,1.16-.56,2.17-1.27,3.05-2.11v2.72h10.33v-33.26h-10.33ZM238.35,77.5c-1.41,0-2.68-.33-3.8-.99-1.12-.66-2.01-1.58-2.67-2.77-.66-1.19-.99-2.53-.99-4.04s.33-2.85.99-4.04c.66-1.19,1.55-2.11,2.67-2.77,1.12-.66,2.38-.99,3.8-.99s2.76.33,3.9.99c1.14.66,2.01,1.57,2.6,2.74.59,1.16.89,2.5.89,4,0,2.33-.67,4.22-2.02,5.68-1.35,1.46-3.14,2.19-5.37,2.19Z"/>
      </g>
      <path class="cls-1" d="M116.29,45.29L77.71,6.71c-8.95-8.95-23.47-8.95-32.42,0L6.71,45.29c-8.95,8.95-8.95,23.47,0,32.42l38.58,38.58c8.95,8.95,23.47,8.95,32.42,0l38.58-38.58c8.95-8.95,8.95-23.47,0-32.42ZM81.5,68.19c0,7.35-5.96,13.31-13.31,13.31h-13.38c-7.35,0-13.31-5.96-13.31-13.31v-13.38c0-7.35,5.96-13.31,13.31-13.31h13.38c7.35,0,13.31,5.96,13.31,13.31v13.38Z"/>
    </g>
  </g>
</svg>
